<?xml version="1.0" encoding="UTF-8" standalone="no"?>
<!-- Created with Inkscape (http://www.inkscape.org/) -->

<svg
   xmlns:dc="http://purl.org/dc/elements/1.1/"
   xmlns:cc="http://creativecommons.org/ns#"
   xmlns:rdf="http://www.w3.org/1999/02/22-rdf-syntax-ns#"
   xmlns:svg="http://www.w3.org/2000/svg"
   xmlns="http://www.w3.org/2000/svg"
   xmlns:sodipodi="http://sodipodi.sourceforge.net/DTD/sodipodi-0.dtd"
   xmlns:inkscape="http://www.inkscape.org/namespaces/inkscape"
   version="1.1"
   id="svg2"
   xml:space="preserve"
   width="666.66669"
   height="666.66669"
   viewBox="0 0 666.66669 666.66669"
   sodipodi:docname="apiagri-logo-white.svg"
   inkscape:version="0.92.2 5c3e80d, 2017-08-06"><metadata
     id="metadata8"><rdf:RDF><cc:Work
         rdf:about=""><dc:format>image/svg+xml</dc:format><dc:type
           rdf:resource="http://purl.org/dc/dcmitype/StillImage" /><dc:title></dc:title></cc:Work></rdf:RDF></metadata><defs
     id="defs6"><clipPath
       clipPathUnits="userSpaceOnUse"
       id="clipPath18"><path
         d="M 0,500 H 500 V 0 H 0 Z"
         id="path16"
         inkscape:connector-curvature="0" /></clipPath><clipPath
       clipPathUnits="userSpaceOnUse"
       id="clipPath90"><path
         d="M 396.44,296.818 H 419 v -29.475 h -22.56 z"
         id="path88"
         inkscape:connector-curvature="0" /></clipPath><clipPath
       clipPathUnits="userSpaceOnUse"
       id="clipPath114"><path
         d="M 369.584,281.71 H 389 v -13.968 h -19.416 z"
         id="path112"
         inkscape:connector-curvature="0" /></clipPath><clipPath
       clipPathUnits="userSpaceOnUse"
       id="clipPath138"><path
         d="m 186.848,296.818 h 22.047 v -29.475 h -22.047 z"
         id="path136"
         inkscape:connector-curvature="0" /></clipPath><clipPath
       clipPathUnits="userSpaceOnUse"
       id="clipPath162"><path
         d="m 217,281.71 h 18.979 V 267.742 H 217 Z"
         id="path160"
         inkscape:connector-curvature="0" /></clipPath></defs><sodipodi:namedview
     pagecolor="#ffffff"
     bordercolor="#666666"
     borderopacity="1"
     objecttolerance="10"
     gridtolerance="10"
     guidetolerance="10"
     inkscape:pageopacity="0"
     inkscape:pageshadow="2"
     inkscape:window-width="640"
     inkscape:window-height="480"
     id="namedview4"
     showgrid="false"
     inkscape:zoom="0.35399999"
     inkscape:cx="333.33334"
     inkscape:cy="333.33334"
     inkscape:current-layer="g10" /><g
     id="g10"
     inkscape:groupmode="layer"
     inkscape:label="ApiAgri - Logo - Final"
     transform="matrix(1.3333333,0,0,-1.3333333,0,666.66667)"><g
       id="g12"><g
         id="g14"
         clip-path="url(#clipPath18)"><g
           id="g20"
           transform="translate(130,229.2638)"><path
             d="m 0,0 v -4.149 c -1,-2.44 -1.218,-4.74 -2.396,-6.895 -1.181,-2.156 -2.816,-4.027 -4.646,-5.613 -1.83,-1.586 -3.991,-2.828 -6.35,-3.722 -2.36,-0.896 -4.874,-1.342 -7.476,-1.342 -2.849,0 -5.529,0.528 -8.01,1.586 -2.482,1.056 -4.645,2.481 -6.476,4.271 -1.83,1.789 -3.298,3.884 -4.397,6.285 -1.098,2.399 -1.649,4.942 -1.649,7.627 0,2.764 0.548,5.348 1.646,7.748 1.098,2.399 2.562,4.495 4.393,6.285 1.83,1.789 3.985,3.213 6.467,4.271 2.481,1.057 5.144,1.587 7.993,1.587 2.603,0 5.084,-0.469 7.444,-1.403 2.359,-0.937 4.454,-2.197 6.285,-3.784 1.83,-1.586 3.595,-3.458 4.776,-5.613 C -1.218,4.982 -1,2.685 0,0.244 Z m 0.455,19.037 c -2.849,2.847 -6.102,5.003 -9.763,6.468 -3.661,1.464 -7.526,2.196 -11.593,2.196 -4.069,0 -7.932,-0.732 -11.593,-2.196 -3.661,-1.465 -6.916,-3.621 -9.763,-6.468 -2.848,-2.849 -5.045,-6.062 -6.589,-9.641 -1.547,-3.58 -2.319,-7.363 -2.319,-11.348 0,-3.987 0.772,-7.77 2.319,-11.349 1.544,-3.581 3.741,-6.794 6.589,-9.641 2.847,-2.767 6.102,-4.881 9.763,-6.346 3.661,-1.464 7.524,-2.196 11.593,-2.196 3.823,0 7.724,0.65 11.183,1.952 3.457,1.301 6.718,3.213 9.718,5.736 v -2.807 c 0,-1.384 0.206,-2.543 1.143,-3.477 0.934,-0.937 1.963,-1.404 3.347,-1.404 1.382,0 2.356,0.467 3.292,1.404 0.935,0.934 1.218,2.093 1.218,3.477 v 21.966 c 0,0.488 0.139,0.955 0.181,1.403 0.04,0.446 0.122,0.873 0.122,1.282 0,3.985 -0.744,7.768 -2.289,11.348 -1.546,3.579 -3.713,6.792 -6.559,9.641"
             style="fill:#1d1d1f;fill-opacity:1;fill-rule:nonzero;stroke:none"
             id="path22"
             inkscape:connector-curvature="0" /></g><g
           id="g24"
           transform="translate(192.5686,220.2946)"><path
             d="m 0,0 c -1.058,-2.482 -2.523,-4.658 -4.393,-6.529 -1.873,-1.872 -4.069,-3.356 -6.59,-4.454 -2.522,-1.098 -5.207,-1.647 -8.054,-1.647 -2.767,0 -5.39,0.528 -7.871,1.586 -2.483,1.056 -4.637,2.481 -6.468,4.271 -1.83,1.789 -3.31,3.905 -4.408,6.346 -1.098,2.441 -1.785,5.043 -1.785,7.81 v 0.61 0.244 c 0,2.765 0.565,5.388 1.663,7.871 1.098,2.481 2.589,4.656 4.462,6.529 1.87,1.87 4.031,3.335 6.471,4.393 2.441,1.056 5.085,1.586 7.934,1.586 2.847,0 5.533,-0.549 8.055,-1.647 2.521,-1.098 4.718,-2.584 6.59,-4.454 C -2.523,20.643 -1.058,18.467 0,15.986 1.056,13.504 1.586,10.84 1.586,7.993 1.586,5.145 1.056,2.48 0,0 m 2.441,29.471 c -2.849,2.847 -6.102,5.043 -9.763,6.589 -3.661,1.545 -7.566,2.319 -11.715,2.319 -4.069,0 -7.953,-0.774 -11.654,-2.319 -3.703,-1.546 -6.977,-3.742 -9.823,-6.589 -2.849,-2.849 -5.159,-6.123 -6.663,-9.824 -1.507,-3.703 -2.392,-7.587 -2.392,-11.654 V 7.261 -55.952 c 0,-1.382 0.601,-2.541 1.538,-3.477 0.934,-0.935 2.16,-1.404 3.545,-1.404 1.382,0 2.559,0.469 3.496,1.404 0.934,0.936 1.421,2.095 1.421,3.477 v 41.613 c 3,-2.604 6.014,-4.597 9.473,-5.979 3.457,-1.385 7.146,-2.075 11.052,-2.075 4.149,0 8.057,0.772 11.718,2.319 3.661,1.544 6.916,3.741 9.765,6.59 2.846,2.846 5.044,6.12 6.59,9.823 1.545,3.701 2.319,7.585 2.319,11.654 0,4.067 -0.773,7.951 -2.318,11.654 -1.546,3.701 -3.743,6.975 -6.589,9.824"
             style="fill:#1d1d1f;fill-opacity:1;fill-rule:nonzero;stroke:none"
             id="path26"
             inkscape:connector-curvature="0" /></g><g
           id="g28"
           transform="translate(212.9469,258.3075)"><path
             d="m 0,0 c -1.384,0 -2.576,-0.469 -3.511,-1.404 -0.936,-0.935 -1.436,-2.095 -1.436,-3.477 v -48.813 c 0,-1.384 0.5,-2.544 1.436,-3.478 0.935,-0.936 2.11,-1.403 3.495,-1.403 1.382,0 2.635,0.467 3.571,1.403 0.935,0.934 1.498,2.094 1.498,3.478 v 48.813 c 0,1.382 -0.555,2.542 -1.489,3.477 C 2.628,-0.469 1.382,0 0,0"
             style="fill:#1d1d1f;fill-opacity:1;fill-rule:nonzero;stroke:none"
             id="path30"
             inkscape:connector-curvature="0" /></g><g
           id="g32"
           transform="translate(273,229.2638)"><path
             d="m 0,0 v -4.149 c 0,-2.44 -1.025,-4.74 -2.203,-6.895 -1.181,-2.156 -2.719,-4.027 -4.55,-5.613 -1.83,-1.586 -3.943,-2.828 -6.301,-3.722 -2.361,-0.896 -4.85,-1.342 -7.453,-1.342 -2.849,0 -5.516,0.528 -7.997,1.586 -2.483,1.056 -4.639,2.481 -6.47,4.271 -1.83,1.789 -3.296,3.884 -4.394,6.285 -1.098,2.399 -1.648,4.942 -1.648,7.627 0,2.764 0.549,5.348 1.647,7.748 1.098,2.399 2.563,4.495 4.393,6.285 1.831,1.789 3.985,3.213 6.468,4.271 2.48,1.057 5.144,1.587 7.993,1.587 2.603,0 5.083,-0.469 7.444,-1.403 2.358,-0.937 4.454,-2.197 6.284,-3.784 1.831,-1.586 3.403,-3.458 4.584,-5.613 C -1.025,4.982 0,2.685 0,0.244 Z m 0.84,19.037 c -2.849,2.847 -6.101,5.003 -9.762,6.468 -3.661,1.464 -7.526,2.196 -11.593,2.196 -4.069,0 -7.932,-0.732 -11.593,-2.196 -3.661,-1.465 -6.916,-3.621 -9.763,-6.468 -2.848,-2.849 -5.045,-6.062 -6.589,-9.641 -1.547,-3.58 -2.319,-7.363 -2.319,-11.348 0,-3.987 0.772,-7.77 2.319,-11.349 1.544,-3.581 3.741,-6.794 6.589,-9.641 2.847,-2.767 6.102,-4.881 9.763,-6.346 3.661,-1.464 7.524,-2.196 11.593,-2.196 3.823,0 7.531,0.65 10.99,1.952 3.456,1.301 6.525,3.213 9.525,5.736 v -2.807 c 0,-1.384 0.399,-2.543 1.335,-3.477 0.935,-0.937 2.06,-1.404 3.444,-1.404 1.383,0 2.712,0.467 3.648,1.404 0.934,0.934 1.573,2.093 1.573,3.477 v 21.966 c 0,0.488 -0.168,0.955 -0.126,1.403 0.04,0.446 -0.032,0.873 -0.032,1.282 0,3.985 -0.821,7.768 -2.365,11.348 -1.547,3.579 -3.79,6.792 -6.637,9.641"
             style="fill:#1d1d1f;fill-opacity:1;fill-rule:nonzero;stroke:none"
             id="path34"
             inkscape:connector-curvature="0" /></g><g
           id="g36"
           transform="translate(335.8321,219.5626)"><path
             d="m 0,0 c -1.058,-2.401 -2.523,-4.496 -4.393,-6.285 -1.873,-1.79 -4.048,-3.215 -6.529,-4.271 -2.482,-1.058 -5.146,-1.586 -7.993,-1.586 -2.849,0 -5.512,0.528 -7.993,1.586 -2.483,1.056 -4.658,2.481 -6.529,4.271 -1.872,1.789 -3.336,3.884 -4.393,6.285 -1.058,2.398 -1.586,4.982 -1.586,7.749 0,2.765 0.528,5.348 1.586,7.749 1.057,2.398 2.521,4.494 4.393,6.284 1.871,1.789 4.046,3.213 6.529,4.272 2.481,1.056 5.144,1.586 7.993,1.586 2.847,0 5.511,-0.53 7.993,-1.586 2.481,-1.059 4.656,-2.483 6.529,-4.272 C -2.523,19.992 -1.058,17.896 0,15.498 1.056,13.097 1.586,10.514 1.586,7.749 1.586,4.982 1.056,2.398 0,0 M 6.487,37.402 C 5.103,37.402 3.725,36.934 2.79,35.999 1.854,35.063 1.168,33.904 1.168,32.521 v -2.928 c -2,2.52 -5.791,4.453 -9.248,5.796 -3.459,1.342 -7.034,2.013 -10.939,2.013 -4.07,0 -7.88,-0.732 -11.541,-2.196 -3.661,-1.465 -6.89,-3.621 -9.737,-6.468 -2.848,-2.849 -5.032,-6.061 -6.576,-9.64 -1.547,-3.581 -2.312,-7.364 -2.312,-11.349 0,-3.987 0.775,-7.77 2.322,-11.349 1.544,-3.581 3.742,-6.794 6.591,-9.641 2.847,-2.848 6.102,-5.003 9.763,-6.467 3.661,-1.465 7.525,-2.197 11.594,-2.197 4.067,0 7.723,0.732 11.384,2.197 3.301,1.32 6.699,3.208 8.699,5.654 v -16.429 c 0,-0.014 0.211,-0.028 0.211,-0.043 0,-0.015 0.103,-0.028 0.103,-0.043 0,-2.685 -0.478,-5.227 -1.534,-7.627 -1.059,-2.399 -2.497,-4.495 -4.367,-6.285 -1.873,-1.789 -4.035,-3.213 -6.516,-4.271 -2.482,-1.056 -5.139,-1.586 -7.986,-1.586 -2.849,0 -5.51,0.53 -7.99,1.586 -2.483,1.058 -4.657,2.482 -6.527,4.271 -1.873,1.79 -3.336,3.886 -4.393,6.285 -1.058,2.4 -1.586,4.942 -1.586,7.627 0,1.384 -0.468,2.543 -1.403,3.478 -0.936,0.936 -2.095,1.403 -3.478,1.403 -1.384,0 -2.543,-0.467 -3.477,-1.403 -0.937,-0.935 -1.404,-2.094 -1.404,-3.478 0,-3.985 0.772,-7.769 2.319,-11.349 1.544,-3.579 3.741,-6.752 6.59,-9.519 2.846,-2.847 6.101,-5.003 9.762,-6.467 3.661,-1.465 7.524,-2.197 11.593,-2.197 4.067,0 7.932,0.732 11.593,2.197 3.661,1.464 6.914,3.62 9.763,6.467 2.847,2.767 5.043,5.94 6.589,9.519 1.545,3.58 2.319,7.364 2.319,11.349 0,0.015 -0.092,0.028 -0.092,0.043 0,0.015 -0.089,0.029 -0.089,0.043 V 5.734 7.749 32.521 c 0,1.383 -0.379,2.542 -1.313,3.478 -0.936,0.935 -1.985,1.403 -3.368,1.403"
             style="fill:#1d1d1f;fill-opacity:1;fill-rule:nonzero;stroke:none"
             id="path38"
             inkscape:connector-curvature="0" /></g><g
           id="g40"
           transform="translate(379.0313,258.7954)"><path
             d="m 0,0 c -3.743,0 -7.322,-0.713 -10.739,-2.136 -3.416,-1.424 -6.427,-3.437 -9.03,-6.04 -2.685,-2.685 -4.762,-5.735 -6.145,-9.152 -1.384,-3.417 -2.117,-6.998 -2.117,-10.739 V -55.89 c 0,-1.385 0.51,-2.544 1.446,-3.478 0.935,-0.936 2.115,-1.403 3.499,-1.403 1.383,0 2.629,0.467 3.565,1.403 0.934,0.934 1.49,2.093 1.49,3.478 v 27.823 c 0,2.521 0.391,4.9 1.327,7.139 0.935,2.236 2.199,4.168 3.868,5.796 1.666,1.627 3.581,2.929 5.777,3.905 2.197,0.977 4.546,1.464 7.068,1.464 1.383,0 2.538,0.468 3.474,1.404 0.934,0.934 1.401,2.094 1.401,3.478 0,1.382 -0.471,2.542 -1.405,3.478 C 2.543,-0.469 1.382,0 0,0"
             style="fill:#1d1d1f;fill-opacity:1;fill-rule:nonzero;stroke:none"
             id="path42"
             inkscape:connector-curvature="0" /></g><g
           id="g44"
           transform="translate(392.9423,258.3075)"><path
             d="m 0,0 c -1.384,0 -2.574,-0.469 -3.508,-1.404 -0.937,-0.935 -1.434,-2.095 -1.434,-3.477 v -48.813 c 0,-1.384 0.497,-2.544 1.434,-3.478 0.934,-0.936 2.108,-1.403 3.493,-1.403 1.382,0 2.637,0.467 3.574,1.403 0.934,0.934 1.499,2.094 1.499,3.478 v 48.813 c 0,1.382 -0.557,2.542 -1.492,3.477 C 2.63,-0.469 1.382,0 0,0"
             style="fill:#1d1d1f;fill-opacity:1;fill-rule:nonzero;stroke:none"
             id="path46"
             inkscape:connector-curvature="0" /></g><g
           id="g48"
           transform="translate(305.1472,323.13)"><path
             d="m 0,0 -1.128,-1.932 -4.032,-6.908 -1.932,1.108 -0.712,0.412 -0.384,-0.12 -8.62,-2.648 c -5.932,-1.768 -11.992,1.64 -13.812,7.756 -0.684,2.296 -0.652,4.6 -0.024,6.676 1.032,3.456 3.704,6.288 7.44,7.4 2.124,0.632 4.272,0.584 6.232,-0.024 0.16,0.196 0.324,0.388 0.504,0.572 0.348,0.376 0.724,0.724 1.124,1.036 3.236,2.548 7.84,3.008 11.612,0.804 C 1.196,11.252 2.872,4.916 0,0"
             style="fill:#ffffff;fill-opacity:1;fill-rule:nonzero;stroke:none"
             id="path50"
             inkscape:connector-curvature="0" /></g><g
           id="g52"
           transform="translate(293.2632,330.73)"><path
             d="m 0,0 c -1.524,2.7 -5.088,4.12 -5.088,4.12 -0.089,-0.091 -0.051,-0.044 -0.009,0.002 -1.958,0.606 -4.102,0.653 -6.223,0.022 -3.736,-1.112 -6.408,-3.944 -7.44,-7.4 4.652,0.148 14.096,-1.1 22.456,-11.784 l 0.384,0.12 z"
             style="fill:#ededed;fill-opacity:1;fill-rule:nonzero;stroke:none"
             id="path54"
             inkscape:connector-curvature="0" /></g><g
           id="g56"
           transform="translate(288.166,334.8525)"><path
             d="M 0,0 C 0.003,-0.001 0.006,-0.002 0.009,-0.003 0.09,0.097 0.043,0.048 0,0"
             style="fill:#ededed;fill-opacity:1;fill-rule:nonzero;stroke:none"
             id="path58"
             inkscape:connector-curvature="0" /></g><g
           id="g60"
           transform="translate(304.3473,321.53)"><path
             d="m 0,0 -1.128,-1.932 c -3.656,11.568 -12.016,14.64 -14.216,15.26 3.236,2.548 7.84,3.008 11.612,0.804 C 1.196,11.252 2.872,4.916 0,0"
             style="fill:#ededed;fill-opacity:1;fill-rule:nonzero;stroke:none"
             id="path62"
             inkscape:connector-curvature="0" /></g><g
           id="g64"
           transform="translate(303.6608,289.8066)"><path
             d="m 0,0 c -3.126,0 -6.502,0.666 -9.776,2.568 -3.575,2.076 -5.707,5.882 -5.565,9.931 v 0 c 0.11,3.132 1.202,7.904 5.779,12.852 3.645,3.941 8.216,6.705 13.219,7.994 7.381,1.903 13.144,0.121 16.669,-5.153 0.336,-0.487 4.412,-6.588 2.728,-13.464 C 21.942,10.184 18.632,6.449 13.215,3.625 12.5,3.203 6.852,0 0,0"
             style="fill:#f4b900;fill-opacity:1;fill-rule:nonzero;stroke:none"
             id="path66"
             inkscape:connector-curvature="0" /></g><g
           id="g68"
           transform="translate(325.3192,325.7438)"><path
             d="m 0,0 c -0.354,-0.086 -0.738,-0.056 -1.093,0.111 -0.825,0.39 -1.178,1.373 -0.789,2.198 L -0.07,6.146 C 0.319,6.971 1.302,7.324 2.127,6.935 2.951,6.546 3.304,5.562 2.915,4.737 L 1.104,0.9 C 0.882,0.43 0.468,0.114 0,0"
             style="fill:#1d1d1f;fill-opacity:1;fill-rule:nonzero;stroke:none"
             id="path70"
             inkscape:connector-curvature="0" /></g><g
           id="g72"
           transform="translate(319.2682,328.1878)"><path
             d="m 0,0 c -0.298,-0.21 -0.667,-0.322 -1.058,-0.296 -0.91,0.06 -1.598,0.847 -1.538,1.756 l 0.282,4.235 c 0.061,0.91 0.847,1.598 1.757,1.537 C 0.353,7.172 1.041,6.385 0.98,5.475 L 0.698,1.241 C 0.664,0.723 0.394,0.277 0,0"
             style="fill:#1d1d1f;fill-opacity:1;fill-rule:nonzero;stroke:none"
             id="path74"
             inkscape:connector-curvature="0" /></g><g
           id="g76"
           transform="translate(316.9392,296.394)"><path
             d="m 0,0 c -9.308,6.488 -12.332,16.196 -13.276,20.768 -0.14,0.692 -0.236,1.268 -0.296,1.696 0.576,0.288 1.16,0.556 1.756,0.8 1.052,0.436 2.132,0.796 3.236,1.08 0.144,0.04 0.28,0.064 0.424,0.1 C -7.564,21.296 -4.932,10.928 4.852,3.8 3.604,2.412 1.984,1.144 0,0 m -10.892,-3.892 c -8.42,6.14 -11.18,15.844 -11.84,18.736 0.484,0.636 1.008,1.264 1.58,1.884 0.364,0.392 0.736,0.772 1.116,1.136 0.788,0.76 1.612,1.464 2.468,2.112 0.156,-0.8 0.368,-1.728 0.652,-2.752 1.464,-5.312 4.84,-13.244 12.54,-19.388 -1.7,-0.672 -3.968,-1.392 -6.516,-1.728 m -11.504,2.036 c -2.58,1.5 -4.12,4.224 -4.016,7.116 0.048,1.396 0.304,2.78 0.752,4.144 1.336,-3.712 3.74,-8.68 7.932,-13.068 -1.564,0.344 -3.14,0.92 -4.668,1.808 M -30.24,19.74 c -4.188,-1.244 -8.376,1.132 -9.692,5.548 -1.296,4.34 1.004,8.732 5.196,9.98 1.16,0.344 2.32,0.4 3.42,0.208 1.512,-0.264 2.848,-1.016 3.96,-2.136 0.956,-0.96 1.652,-2.22 2.088,-3.684 l 0.964,-3.248 1.324,-4.436 -1.496,-0.46 z m 10.244,20.052 c 1.244,-0.008 2.516,-0.328 3.668,-1 3.508,-2.052 4.716,-6.556 2.676,-10.048 l -1.228,-2.08 c -1.364,-0.644 -2.684,-1.392 -3.944,-2.244 l -1.96,6.572 c -0.828,2.788 -2.372,5.096 -4.416,6.712 1.396,1.356 3.296,2.1 5.204,2.088 M 8.84,22.832 c -3.792,5.672 -9.916,7.708 -17.744,5.908 1.716,5.136 -0.348,10.96 -5.216,13.808 -5.052,2.948 -11.424,1.684 -14.988,-2.732 -2.216,0.692 -4.644,0.744 -7.048,0.028 -6.768,-2.016 -10.46,-9.016 -8.396,-15.932 2.06,-6.92 8.92,-10.776 15.632,-8.776 l 1.416,0.436 C -29.968,11.62 -30.668,8.008 -30.756,5.412 -30.76,5.276 -30.764,5.136 -30.764,5 c 0,-0.896 0.1,-1.776 0.296,-2.632 l -5.356,-6.536 c -0.676,-0.676 -0.036,-1.812 0.896,-1.588 l 7.112,2.832 c 0.9,-1.052 1.988,-1.968 3.236,-2.692 3.636,-2.108 7.384,-2.848 10.856,-2.848 7.604,0 13.876,3.552 14.672,4.024 6.012,3.136 9.688,7.28 10.92,12.324 C 13.74,15.52 9.212,22.292 8.84,22.832"
             style="fill:#1d1d1f;fill-opacity:1;fill-rule:nonzero;stroke:none"
             id="path78"
             inkscape:connector-curvature="0" /></g><g
           id="g80"
           transform="translate(397,276.97)"><path
             d="M 0,0 V -9.496 C 0,-9.5 -0.266,-9.5 -0.242,-9.5 12.074,-10.56 17.573,-4.764 20.057,0.252 21.405,2.98 22,6 22,9.04 v 10.8 c 0,0.004 -0.162,0.004 -0.182,0.008 C 13.482,20.864 8.357,17.68 4.969,13.928 1.537,10.124 0,5.12 0,0"
             style="fill:#538e27;fill-opacity:1;fill-rule:nonzero;stroke:none"
             id="path82"
             inkscape:connector-curvature="0" /></g><g
           id="g84"><g
             id="g86" /><g
             id="g98"><g
               clip-path="url(#clipPath90)"
               id="g96"
               style="opacity:0.85000598"><g
                 transform="translate(396.4397,267.47)"
                 id="g94"><path
                   d="m 0,0 c 12.316,-1.06 17.974,4.736 20.458,9.752 1.348,2.728 2.102,5.748 2.102,8.788 v 10.8 c 0,0.004 -0.162,0.004 -0.182,0.008 C 18.129,27.593 8.832,7.193 0,0"
                   style="fill:#4b7a22;fill-opacity:1;fill-rule:nonzero;stroke:none"
                   id="path92"
                   inkscape:connector-curvature="0" /></g></g></g></g><g
           id="g100"
           transform="translate(403.3732,289.2876)"><path
             d="m 0,0 c -2.972,-3.29 -4.608,-7.665 -4.608,-12.32 v -7.221 c 7.65,-0.149 12.982,2.716 15.863,8.54 1.136,2.297 1.737,4.968 1.737,7.724 V 5.307 C 7.709,5.485 3.345,3.704 0,0 m -7.219,-24.203 -2.189,0.193 v 11.69 c 0,5.845 2.076,11.363 5.846,15.537 4.822,5.339 11.478,7.651 19.249,6.686 L 17.792,9.642 V -3.277 c 0,-3.491 -0.773,-6.897 -2.234,-9.852 -1.734,-3.506 -4.231,-6.252 -7.421,-8.162 -3.391,-2.031 -7.491,-3.053 -12.222,-3.053 -1.015,0 -2.061,0.047 -3.134,0.141"
             style="fill:#1d1d1f;fill-opacity:1;fill-rule:nonzero;stroke:none"
             id="path102"
             inkscape:connector-curvature="0" /></g><g
           id="g104"
           transform="translate(372.7957,271.41)"><path
             d="m 0,0 c 0.184,-0.172 0.368,-0.34 0.544,-0.52 0.648,-0.664 3.386,-2.9 6.678,-3.012 l 8.982,-0.136 v 3.6 c 0,0 -0.206,7.761 -7.942,10.029 C 7.058,10.317 5.48,10.59 4.224,10.59 h -7.456 c 0,0 -0.004,-0.141 -0.008,-0.161 C -3.34,9.953 -4.428,4.188 0,0"
             style="fill:#538e27;fill-opacity:1;fill-rule:nonzero;stroke:none"
             id="path106"
             inkscape:connector-curvature="0" /></g><g
           id="g108"><g
             id="g110" /><g
             id="g122"><g
               clip-path="url(#clipPath114)"
               id="g120"
               style="opacity:0.85000598"><g
                 transform="translate(372.7957,271.41)"
                 id="g118"><path
                   d="m 0,0 c 0.184,-0.172 0.368,-0.34 0.544,-0.52 0.648,-0.664 3.386,-2.9 6.678,-3.012 l 8.982,-0.136 v 1.655 C 9.204,0.755 1.038,6.448 -2.922,10.3 -3.022,9.824 -4.428,4.188 0,0"
                   style="fill:#4b7a22;fill-opacity:1;fill-rule:nonzero;stroke:none"
                   id="path116"
                   inkscape:connector-curvature="0" /></g></g></g></g><g
           id="g124"
           transform="translate(372.1601,279.3427)"><path
             d="M 0,0 C 0.042,-1.662 0.527,-4.147 2.685,-6.189 L 2.814,-6.31 C 2.978,-6.463 3.14,-6.616 3.295,-6.775 3.654,-7.142 5.561,-8.973 8,-9.067 l 6.205,-0.096 v 1.198 c 10e-4,0.058 0.016,5.827 -5.901,7.562 C 7.392,-0.136 6.368,0 5.261,0 Z m 7.901,-13.866 -0.046,10e-4 c -4.172,0.144 -7.173,2.896 -7.994,3.737 -0.106,0.108 -0.216,0.21 -0.326,0.312 l -0.148,0.139 C -6.177,-4.413 -4.602,2.649 -4.532,2.947 L -4.098,4.8 H 5.261 C 6.825,4.8 8.303,4.599 9.655,4.203 17.159,2.002 19.052,-4.764 19.005,-8 v -6.037 z"
             style="fill:#1d1d1f;fill-opacity:1;fill-rule:nonzero;stroke:none"
             id="path126"
             inkscape:connector-curvature="0" /></g><g
           id="g128"
           transform="translate(209,276.97)"><path
             d="M 0,0 V -9.496 C 0,-9.5 -0.066,-9.5 -0.09,-9.5 -12.406,-10.56 -17.739,-4.764 -20.223,0.252 -21.571,2.98 -22,6 -22,9.04 v 10.8 c 0,0.004 -0.17,0.004 -0.15,0.008 8.336,1.016 13.627,-2.168 17.015,-5.92 C -1.703,10.124 0,5.12 0,0"
             style="fill:#538e27;fill-opacity:1;fill-rule:nonzero;stroke:none"
             id="path130"
             inkscape:connector-curvature="0" /></g><g
           id="g132"><g
             id="g134" /><g
             id="g146"><g
               clip-path="url(#clipPath138)"
               id="g144"
               style="opacity:0.85000598"><g
                 transform="translate(208.8952,267.47)"
                 id="g142"><path
                   d="m 0,0 c -12.316,-1.06 -17.642,4.736 -20.126,9.752 -1.348,2.728 -1.769,5.748 -1.769,8.788 v 10.8 c 0,0.004 -0.171,0.004 -0.151,0.008 C -17.797,27.593 -8.832,7.193 0,0"
                   style="fill:#4b7a22;fill-opacity:1;fill-rule:nonzero;stroke:none"
                   id="path140"
                   inkscape:connector-curvature="0" /></g></g></g></g><g
           id="g148"
           transform="translate(188.9702,294.595)"><path
             d="m 0,0 v -8.585 c 0,-2.756 0.6,-5.427 1.736,-7.723 2.881,-5.824 8.213,-8.689 15.864,-8.541 v 7.222 c 0,4.654 -1.637,9.029 -4.608,12.32 C 9.646,-1.604 5.282,0.178 0,0 m 17.076,-29.652 c -4.731,0 -8.831,1.023 -12.221,3.053 -3.19,1.91 -5.687,4.657 -7.421,8.163 -1.462,2.955 -2.234,6.361 -2.234,9.851 v 12.92 l 2.104,0.261 C 5.076,5.56 11.732,3.248 16.554,-2.09 20.324,-6.264 22.4,-11.782 22.4,-17.627 v -11.69 l -2.189,-0.193 c -1.074,-0.094 -2.119,-0.142 -3.135,-0.142"
             style="fill:#1d1d1f;fill-opacity:1;fill-rule:nonzero;stroke:none"
             id="path150"
             inkscape:connector-curvature="0" /></g><g
           id="g152"
           transform="translate(232.5392,271.41)"><path
             d="m 0,0 c -0.184,-0.172 -0.368,-0.34 -0.544,-0.52 -0.648,-0.664 -3.054,-2.9 -6.346,-3.012 l -8.649,-0.136 v 3.6 c 0,0 -0.127,7.761 7.609,10.029 1.204,0.356 2.45,0.629 3.706,0.629 h 7.456 c 0,0 0.004,-0.141 0.008,-0.161 C 3.34,9.953 4.428,4.188 0,0"
             style="fill:#538e27;fill-opacity:1;fill-rule:nonzero;stroke:none"
             id="path154"
             inkscape:connector-curvature="0" /></g><g
           id="g156"><g
             id="g158" /><g
             id="g170"><g
               clip-path="url(#clipPath162)"
               id="g168"
               style="opacity:0.85000598"><g
                 transform="translate(232.5392,271.41)"
                 id="g166"><path
                   d="m 0,0 c -0.184,-0.172 -0.368,-0.34 -0.544,-0.52 -0.648,-0.664 -3.054,-2.9 -6.346,-3.012 l -8.649,-0.136 v 1.655 C -8.539,0.755 -0.706,6.448 3.254,10.3 3.354,9.824 4.428,4.188 0,0"
                   style="fill:#4b7a22;fill-opacity:1;fill-rule:nonzero;stroke:none"
                   id="path164"
                   inkscape:connector-curvature="0" /></g></g></g></g><g
           id="g172"
           transform="translate(227.9143,279.3427)"><path
             d="m 0,0 c -1.107,0 -2.131,-0.136 -3.044,-0.403 -5.916,-1.735 -5.901,-7.504 -5.9,-7.562 v -1.198 l 6.204,0.096 c 2.439,0.094 4.347,1.925 4.706,2.292 0.155,0.159 0.317,0.312 0.48,0.465 l 0.129,0.121 C 4.734,-4.147 5.219,-1.662 5.261,0 Z M -13.744,-14.037 V -8 c -0.047,3.236 1.846,10.002 9.35,12.203 C -3.043,4.599 -1.564,4.8 0,4.8 H 9.359 L 9.793,2.947 c 0.07,-0.298 1.644,-7.36 -3.92,-12.624 L 5.725,-9.816 C 5.615,-9.918 5.505,-10.02 5.4,-10.128 4.579,-10.969 1.578,-13.721 -2.595,-13.865 l -0.045,-10e-4 z"
             style="fill:#1d1d1f;fill-opacity:1;fill-rule:nonzero;stroke:none"
             id="path174"
             inkscape:connector-curvature="0" /></g><g
           id="g176"
           transform="translate(215.4877,294.0884)"><path
             d="m 0,0 c 0,-1.815 1.471,-3.286 3.286,-3.286 1.815,0 3.286,1.471 3.286,3.286 0,1.815 -1.471,3.286 -3.286,3.286 C 1.471,3.286 0,1.815 0,0"
             style="fill:#f4b900;fill-opacity:1;fill-rule:nonzero;stroke:none"
             id="path178"
             inkscape:connector-curvature="0" /></g><g
           id="g180"
           transform="translate(218.7738,295.5745)"><path
             d="m 0,0 c -0.82,0 -1.486,-0.667 -1.486,-1.486 0,-0.819 0.666,-1.486 1.486,-1.486 0.82,0 1.486,0.667 1.486,1.486 C 1.486,-0.667 0.82,0 0,0 m 0,-6.572 c -2.804,0 -5.086,2.281 -5.086,5.086 C -5.086,1.318 -2.804,3.6 0,3.6 2.804,3.6 5.086,1.318 5.086,-1.486 5.086,-4.291 2.804,-6.572 0,-6.572"
             style="fill:#1d1d1f;fill-opacity:1;fill-rule:nonzero;stroke:none"
             id="path182"
             inkscape:connector-curvature="0" /></g><g
           id="g184"
           transform="translate(208.9888,308.8884)"><path
             d="M 0,0 C 0,-2.09 1.695,-3.785 3.785,-3.785 5.875,-3.785 7.57,-2.09 7.57,0 7.57,2.09 5.875,3.785 3.785,3.785 1.695,3.785 0,2.09 0,0"
             style="fill:#f4b900;fill-opacity:1;fill-rule:nonzero;stroke:none"
             id="path186"
             inkscape:connector-curvature="0" /></g><g
           id="g188"
           transform="translate(212.7738,310.8733)"><path
             d="m 0,0 c -1.095,0 -1.985,-0.89 -1.985,-1.985 0,-1.094 0.89,-1.985 1.985,-1.985 1.095,0 1.985,0.891 1.985,1.985 C 1.985,-0.89 1.095,0 0,0 m 0,-7.57 c -3.079,0 -5.585,2.506 -5.585,5.585 C -5.585,1.095 -3.079,3.6 0,3.6 3.079,3.6 5.585,1.095 5.585,-1.985 5.585,-5.064 3.079,-7.57 0,-7.57"
             style="fill:#1d1d1f;fill-opacity:1;fill-rule:nonzero;stroke:none"
             id="path190"
             inkscape:connector-curvature="0" /></g><g
           id="g192"
           transform="translate(226.5266,310.4078)"><path
             d="m 0,0 c 0,-2.964 2.403,-5.367 5.367,-5.367 2.964,0 5.366,2.403 5.366,5.367 0,2.964 -2.402,5.367 -5.366,5.367 C 2.403,5.367 0,2.964 0,0"
             style="fill:#f4b900;fill-opacity:1;fill-rule:nonzero;stroke:none"
             id="path194"
             inkscape:connector-curvature="0" /></g><g
           id="g196"
           transform="translate(231.8931,313.9745)"><path
             d="m 0,0 c -1.967,0 -3.567,-1.6 -3.567,-3.567 0,-1.966 1.6,-3.566 3.567,-3.566 1.967,0 3.567,1.6 3.567,3.566 C 3.567,-1.6 1.967,0 0,0 m 0,-10.733 c -3.952,0 -7.167,3.215 -7.167,7.166 0,3.952 3.215,7.167 7.167,7.167 3.952,0 7.167,-3.215 7.167,-7.167 0,-3.951 -3.215,-7.166 -7.167,-7.166"
             style="fill:#1d1d1f;fill-opacity:1;fill-rule:nonzero;stroke:none"
             id="path198"
             inkscape:connector-curvature="0" /></g><g
           id="g200"
           transform="translate(387.9639,295.2884)"><path
             d="m 0,0 c 0,-2.205 -1.788,-3.993 -3.993,-3.993 -2.205,0 -3.993,1.788 -3.993,3.993 0,2.205 1.788,3.993 3.993,3.993 C -1.788,3.993 0,2.205 0,0"
             style="fill:#f4b900;fill-opacity:1;fill-rule:nonzero;stroke:none"
             id="path202"
             inkscape:connector-curvature="0" /></g><g
           id="g204"
           transform="translate(383.9709,297.4814)"><path
             d="m 0,0 c -1.209,0 -2.193,-0.984 -2.193,-2.193 0,-1.209 0.984,-2.193 2.193,-2.193 1.209,0 2.193,0.984 2.193,2.193 C 2.193,-0.984 1.209,0 0,0 m 0,-7.986 c -3.194,0 -5.793,2.599 -5.793,5.793 C -5.793,1.001 -3.194,3.6 0,3.6 3.194,3.6 5.793,1.001 5.793,-2.193 5.793,-5.387 3.194,-7.986 0,-7.986"
             style="fill:#1d1d1f;fill-opacity:1;fill-rule:nonzero;stroke:none"
             id="path206"
             inkscape:connector-curvature="0" /></g><g
           id="g208"
           transform="translate(391.6598,310.0884)"><path
             d="m 0,0 c 0,-2.479 -2.01,-4.489 -4.489,-4.489 -2.479,0 -4.489,2.01 -4.489,4.489 0,2.479 2.01,4.489 4.489,4.489 C -2.01,4.489 0,2.479 0,0"
             style="fill:#f4b900;fill-opacity:1;fill-rule:nonzero;stroke:none"
             id="path210"
             inkscape:connector-curvature="0" /></g><g
           id="g212"
           transform="translate(387.1709,312.7773)"><path
             d="m 0,0 c -1.483,0 -2.689,-1.206 -2.689,-2.689 0,-1.483 1.206,-2.689 2.689,-2.689 1.483,0 2.689,1.206 2.689,2.689 C 2.689,-1.206 1.483,0 0,0 m 0,-8.978 c -3.468,0 -6.289,2.821 -6.289,6.289 C -6.289,0.779 -3.468,3.6 0,3.6 3.468,3.6 6.289,0.779 6.289,-2.689 6.289,-6.157 3.468,-8.978 0,-8.978"
             style="fill:#1d1d1f;fill-opacity:1;fill-rule:nonzero;stroke:none"
             id="path214"
             inkscape:connector-curvature="0" /></g><g
           id="g216"
           transform="translate(376.4942,305.6078)"><path
             d="m 0,0 c 0,-3.116 -2.526,-5.643 -5.643,-5.643 -3.116,0 -5.642,2.527 -5.642,5.643 0,3.116 2.526,5.643 5.642,5.643 C -2.526,5.643 0,3.116 0,0"
             style="fill:#f4b900;fill-opacity:1;fill-rule:nonzero;stroke:none"
             id="path218"
             inkscape:connector-curvature="0" /></g><g
           id="g220"
           transform="translate(370.8515,309.4507)"><path
             d="m 0,0 c -2.119,0 -3.843,-1.724 -3.843,-3.843 0,-2.119 1.724,-3.843 3.843,-3.843 2.119,0 3.843,1.724 3.843,3.843 C 3.843,-1.724 2.119,0 0,0 m 0,-11.286 c -4.104,0 -7.443,3.339 -7.443,7.443 0,4.104 3.339,7.443 7.443,7.443 4.104,0 7.443,-3.339 7.443,-7.443 0,-4.104 -3.339,-7.443 -7.443,-7.443"
             style="fill:#1d1d1f;fill-opacity:1;fill-rule:nonzero;stroke:none"
             id="path222"
             inkscape:connector-curvature="0" /></g><g
           id="g224"
           transform="translate(377.7895,322.8884)"><path
             d="m 0,0 c 0,-1.888 -1.531,-3.419 -3.419,-3.419 -1.888,0 -3.418,1.531 -3.418,3.419 0,1.888 1.53,3.419 3.418,3.419 C -1.531,3.419 0,1.888 0,0"
             style="fill:#f4b900;fill-opacity:1;fill-rule:nonzero;stroke:none"
             id="path226"
             inkscape:connector-curvature="0" /></g><g
           id="g228"
           transform="translate(374.3708,324.5069)"><path
             d="m 0,0 c -0.892,0 -1.619,-0.726 -1.619,-1.619 0,-0.892 0.727,-1.618 1.619,-1.618 0.892,0 1.619,0.726 1.619,1.618 C 1.619,-0.726 0.892,0 0,0 m 0,-6.837 c -2.878,0 -5.219,2.341 -5.219,5.218 C -5.219,1.259 -2.878,3.6 0,3.6 2.878,3.6 5.219,1.259 5.219,-1.619 5.219,-4.496 2.878,-6.837 0,-6.837"
             style="fill:#1d1d1f;fill-opacity:1;fill-rule:nonzero;stroke:none"
             id="path230"
             inkscape:connector-curvature="0" /></g></g></g></g></svg>